[h264 @ 0x561e9e1ed180] Reinit context to 1280x720, pix_fmt: yuv420p
Input #0, mov,mp4,m4a,3gp,3g2,mj2, from '/var/www/html/project/media/video/original/lv_0_20230513170713.mp4':
  Metadata:
    major_brand     : isom
    minor_version   : 512
    compatible_brands: isomiso2avc1mp41
    Hw              : 1
                    : 
    LvMetaInfo      : {"data":{"appVersion":"7.0.0","capabilityName":"","ccTtVid":"","draftInfo":{"adjust":0,"aiMatting":0,"audioToText":0,"chroma":0,"coverTemplateId":"","curveSpeed":0,"faceEffectId":"","filterId":"","gameplayAlgorithm":"","graphs":0,"keyframe":0,"mask":0,"mi
    bitRate         : 10000000
                    : 
    copyright       : f4cb698b1f89ce2eb179f1194829f5b1
    maxrate         : 30000000
                    : 
    te_is_reencode  : 1
                    : 
    encoder         : bytevehwavc
  Duration: 00:00:46.67, start: 0.000000, bitrate: 9503 kb/s
    Stream #0:0(und): Video: h264 (High), 1 reference frame (avc1 / 0x31637661), yuv420p(tv, bt709, left), 1280x720, 9377 kb/s, 30 fps, 30 tbr, 1000k tbn, 2000k tbc (default)
    Metadata:
      handler_name    : VideoHandler
    Stream #0:1(und): Audio: aac (LC) (mp4a / 0x6134706D), 44100 Hz, stereo, fltp, 128 kb/s (default)
    Metadata:
      handler_name    : SoundHandler
Input #1, png_pipe, from '/var/www/html/project/static/images/templates/logo.png':
  Duration: N/A, bitrate: N/A
    Stream #1:0: Video: png, 1 reference frame, rgba(pc), 1920x1080 [SAR 2835:2835 DAR 16:9], 25 tbr, 25 tbn, 25 tbc
[h264 @ 0x561e9e25b440] Reinit context to 1280x720, pix_fmt: yuv420p
Input #2, mov,mp4,m4a,3gp,3g2,mj2, from '/var/www/html/project/static/images/templates/Codino.mp4':
  Metadata:
    major_brand     : mp42
    minor_version   : 1
    compatible_brands: isommp41mp42
    creation_time   : 2021-07-11T07:02:58.000000Z
  Duration: 00:00:02.00, start: 0.000000, bitrate: 1007 kb/s
    Stream #2:0(ita): Audio: aac (LC) (mp4a / 0x6134706D), 44100 Hz, stereo, fltp, 102 kb/s (default)
    Metadata:
      creation_time   : 2021-07-11T07:02:58.000000Z
      handler_name    : Core Media Audio
    Stream #2:1(und): Video: h264 (High), 1 reference frame (avc1 / 0x31637661), yuv420p(tv, bt709, progressive, left), 1280x720 [SAR 1:1 DAR 16:9], 813 kb/s, 25 fps, 25 tbr, 25k tbn, 50k tbc (default)
    Metadata:
      creation_time   : 2021-07-11T07:02:58.000000Z
      handler_name    : Core Media Video
[Parsed_scale_0 @ 0x561e9e297300] w:1280 h:720 flags:'bilinear' interl:0
[Parsed_scale_2 @ 0x561e9e297d00] w:1280 h:720 flags:'bilinear' interl:0
[Parsed_scale_4 @ 0x561e9e209440] w:1280 h:720 flags:'bilinear' interl:0
Stream mapping:
  Stream #0:0 (h264) -> scale
  Stream #0:1 (aac) -> concat:in0:a0
  Stream #1:0 (png) -> scale
  Stream #2:0 (aac) -> concat:in1:a0
  Stream #2:1 (h264) -> scale
  concat:out:v0 -> Stream #0:0 (libx264)
  concat:out:a0 -> Stream #0:1 (aac)
Press [q] to stop, [?] for help
[h264 @ 0x561e9e2d2040] Reinit context to 1280x720, pix_fmt: yuv420p
[h264 @ 0x561e9e6b9080] Reinit context to 1280x720, pix_fmt: yuv420p
[Parsed_scale_0 @ 0x561e9f504040] w:1280 h:720 flags:'bilinear' interl:0
[Parsed_scale_2 @ 0x561e9f504700] w:1280 h:720 flags:'bilinear' interl:0
[Parsed_scale_4 @ 0x561e9f50d940] w:1280 h:720 flags:'bilinear' interl:0
[graph 0 input from stream 0:0 @ 0x561e9f5120c0] w:1280 h:720 pixfmt:yuv420p tb:1/1000000 fr:30/1 sar:0/1 sws_param:flags=2
[graph 0 input from stream 1:0 @ 0x561e9f513080] w:1920 h:1080 pixfmt:rgba tb:1/25 fr:25/1 sar:2835/2835 sws_param:flags=2
[graph 0 input from stream 2:1 @ 0x561e9f514100] w:1280 h:720 pixfmt:yuv420p tb:1/25000 fr:25/1 sar:1/1 sws_param:flags=2
[graph_0_in_0_1 @ 0x561e9f515080] tb:1/44100 samplefmt:fltp samplerate:44100 chlayout:0x3
[graph_0_in_2_0 @ 0x561e9f5161c0] tb:1/44100 samplefmt:fltp samplerate:44100 chlayout:0x3
[Parsed_scale_0 @ 0x561e9f504040] w:1280 h:720 fmt:yuv420p sar:0/1 -> w:1280 h:720 fmt:yuv420p sar:0/1 flags:0x2
[Parsed_setsar_1 @ 0x561e9f504280] w:1280 h:720 sar:0/1 dar:16/9 -> sar:1/1 dar:16/9
[Parsed_scale_2 @ 0x561e9f504700] w:1920 h:1080 fmt:rgba sar:2835/2835 -> w:1280 h:720 fmt:yuva420p sar:1/1 flags:0x2
[Parsed_setsar_3 @ 0x561e9f50cc40] w:1280 h:720 sar:1/1 dar:16/9 -> sar:1/1 dar:16/9
[Parsed_overlay_6 @ 0x561e9f50efc0] main w:1280 h:720 fmt:yuv420p overlay w:1280 h:720 fmt:yuva420p
[Parsed_overlay_6 @ 0x561e9f50efc0] [framesync @ 0x561e9f50f128] Selected 1/1000000 time base
[Parsed_overlay_6 @ 0x561e9f50efc0] [framesync @ 0x561e9f50f128] Sync level 2
[Parsed_scale_4 @ 0x561e9f50d940] w:1280 h:720 fmt:yuv420p sar:1/1 -> w:1280 h:720 fmt:yuv420p sar:1/1 flags:0x2
[Parsed_setsar_5 @ 0x561e9f50e440] w:1280 h:720 sar:1/1 dar:16/9 -> sar:1/1 dar:16/9
[libx264 @ 0x561e9e2cc100] using SAR=1/1
[libx264 @ 0x561e9e2cc100] using cpu capabilities: MMX2 SSE2Fast SSSE3 SSE4.2 AVX FMA3 BMI2 AVX2
[libx264 @ 0x561e9e2cc100] profile High, level 3.1
[libx264 @ 0x561e9e2cc100] 264 - core 155 r2917 0a84d98 - H.264/MPEG-4 AVC codec - Copyleft 2003-2018 - http://www.videolan.org/x264.html - options: cabac=1 ref=1 deblock=1:0:0 analyse=0x3:0x113 me=hex subme=2 psy=1 psy_rd=1.00:0.00 mixed_ref=0 me_range=16 chroma_me=1 trellis=0 8x8dct=1 cqm=0 deadzone=21,11 fast_pskip=1 chroma_qp_offset=0 threads=22 lookahead_threads=5 sliced_threads=0 nr=0 decimate=1 interlaced=0 bluray_compat=0 constrained_intra=0 bframes=3 b_pyramid=2 b_adapt=1 b_bias=0 direct=1 weightb=1 open_gop=0 weightp=1 keyint=250 keyint_min=25 scenecut=40 intra_refresh=0 rc_lookahead=10 rc=crf mbtree=1 crf=18.0 qcomp=0.60 qpmin=0 qpmax=69 qpstep=4 ip_ratio=1.40 aq=1:1.00
Output #0, mp4, to '/var/www/html/project/media/video/watermarks/lv_0_20230513170713.mp4':
  Metadata:
    major_brand     : isom
    minor_version   : 512
    compatible_brands: isomiso2avc1mp41
    Hw              : 1
                    : 
    LvMetaInfo      : {"data":{"appVersion":"7.0.0","capabilityName":"","ccTtVid":"","draftInfo":{"adjust":0,"aiMatting":0,"audioToText":0,"chroma":0,"coverTemplateId":"","curveSpeed":0,"faceEffectId":"","filterId":"","gameplayAlgorithm":"","graphs":0,"keyframe":0,"mask":0,"mi
    bitRate         : 10000000
                    : 
    copyright       : f4cb698b1f89ce2eb179f1194829f5b1
    maxrate         : 30000000
                    : 
    te_is_reencode  : 1
                    : 
    encoder         : Lavf58.29.100
    Stream #0:0: Video: h264 (libx264), 1 reference frame (avc1 / 0x31637661), yuv420p(progressive), 1280x720 [SAR 1:1 DAR 16:9], q=-1--1, 30 fps, 15360 tbn, 30 tbc (default)
    Metadata:
      encoder         : Lavc58.54.100 libx264
    Side data:
      cpb: bitrate max/min/avg: 0/0/0 buffer size: 0 vbv_delay: -1
    Stream #0:1: Audio: aac (LC) (mp4a / 0x6134706D), 44100 Hz, stereo, fltp, delay 1024, 128 kb/s (default)
    Metadata:
      encoder         : Lavc58.54.100 aac
[Parsed_overlay_6 @ 0x561e9f50efc0] [framesync @ 0x561e9f50f128] Sync level 0
[Parsed_concat_7 @ 0x561e9f510100] EOF on in0:v0, 1 streams left in segment.
[Parsed_concat_7 @ 0x561e9f510100] EOF on in0:a0, 0 streams left in segment.
[Parsed_concat_7 @ 0x561e9f510100] Segment finished at pts=46633333
[Parsed_concat_7 @ 0x561e9f510100] EOF on in1:a0, 1 streams left in segment.
[Parsed_concat_7 @ 0x561e9f510100] EOF on in1:v0, 0 streams left in segment.
[Parsed_concat_7 @ 0x561e9f510100] Segment finished at pts=48652018
No more output streams to write to, finishing.
frame= 1449 fps= 91 q=-1.0 Lsize=   43013kB time=00:00:48.66 bitrate=7240.0kbits/s speed=3.04x    
[AVIOContext @ 0x561e9e1eb440] Statistics: 0 seeks, 32 writeouts
video:42206kB audio:755kB subtitle:0kB other streams:0kB global headers:0kB muxing overhead: 0.122680%
Input file #0 (/var/www/html/project/media/video/original/lv_0_20230513170713.mp4):
  Input stream #0:0 (video): 1399 packets read (54661664 bytes); 1399 frames decoded; 
  Input stream #0:1 (audio): 2010 packets read (747054 bytes); 2008 frames decoded (2056192 samples); 
  Total: 3409 packets (55408718 bytes) demuxed
Input file #1 (/var/www/html/project/static/images/templates/logo.png):
  Input stream #1:0 (video): 1 packets read (111578 bytes); 1 frames decoded; 
  Total: 1 packets (111578 bytes) demuxed
Input file #2 (/var/www/html/project/static/images/templates/Codino.mp4):
  Input stream #2:0 (audio): 89 packets read (26579 bytes); 87 frames decoded (89024 samples); 
  Input stream #2:1 (video): 50 packets read (203365 bytes); 50 frames decoded; 
  Total: 139 packets (229944 bytes) demuxed
Output file #0 (/var/www/html/project/media/video/watermarks/lv_0_20230513170713.mp4):
  Output stream #0:0 (video): 1449 frames encoded; 1449 packets muxed (43218630 bytes); 
  Output stream #0:1 (audio): 2096 frames encoded (2145554 samples); 2097 packets muxed (772958 bytes); 
  Total: 3546 packets (43991588 bytes) muxed
[AVIOContext @ 0x561e9e2cce80] Statistics: 2 seeks, 171 writeouts
[libx264 @ 0x561e9e2cc100] frame I:8     Avg QP:13.33  size: 71398
[libx264 @ 0x561e9e2cc100] frame P:381   Avg QP:16.72  size: 44275
[libx264 @ 0x561e9e2cc100] frame B:1060  Avg QP:19.31  size: 24319
[libx264 @ 0x561e9e2cc100] consecutive B-frames:  2.0%  1.0%  1.2% 95.8%
[libx264 @ 0x561e9e2cc100] mb I  I16..4: 33.6% 27.7% 38.7%
[libx264 @ 0x561e9e2cc100] mb P  I16..4: 18.6% 18.4% 10.2%  P16..4: 20.4%  9.5%  8.6%  0.0%  0.0%    skip:14.3%
[libx264 @ 0x561e9e2cc100] mb B  I16..4:  2.3%  2.7%  0.6%  B16..8: 24.7% 11.6%  5.1%  direct:27.8%  skip:25.1%  L0:40.2% L1:33.1% BI:26.7%
[libx264 @ 0x561e9e2cc100] 8x8 transform intra:40.9% inter:38.1%
[libx264 @ 0x561e9e2cc100] coded y,uvDC,uvAC intra: 55.9% 68.6% 13.2% inter: 25.9% 43.7% 1.1%
[libx264 @ 0x561e9e2cc100] i16 v,h,dc,p: 62% 16% 18%  5%
[libx264 @ 0x561e9e2cc100] i8 v,h,dc,ddl,ddr,vr,hd,vl,hu: 26% 26% 25%  3%  3%  4%  4%  3%  6%
[libx264 @ 0x561e9e2cc100] i4 v,h,dc,ddl,ddr,vr,hd,vl,hu: 16% 29% 14%  5%  6%  5%  9%  4% 11%
[libx264 @ 0x561e9e2cc100] i8c dc,h,v,p: 50% 23% 22%  6%
[libx264 @ 0x561e9e2cc100] Weighted P-Frames: Y:2.4% UV:0.3%
[libx264 @ 0x561e9e2cc100] kb/s:7109.19
[aac @ 0x561e9e28f580] Qavg: 1636.891
[AVIOContext @ 0x561e9e1f43c0] Statistics: 91202146 bytes read, 2135 seeks
[AVIOContext @ 0x561e9e20df40] Statistics: 111578 bytes read, 0 seeks
[AVIOContext @ 0x561e9e20a040] Statistics: 1530915 bytes read, 42 seeks
